<svg xmlns="http://www.w3.org/2000/svg" id="Capa_1" data-name="Capa 1" viewBox="0 0 1670.57 1737.85"><defs><style>.cls-1{fill:#2b4893;}</style></defs><path class="cls-1" d="M1410.79,1374.3l-.58.5a21.41,21.41,0,0,1-4.06,2.83l-.42.18a20.87,20.87,0,0,1-5,1.79l-259.52,53.49a20.93,20.93,0,0,1-24.72-24.72l7.8-37.85v0l45.7-221.62a21.1,21.1,0,0,1,1.77-5l.2-.45a20.85,20.85,0,0,1,2.82-4.05c.18-.2.33-.4.52-.59s.25-.32.39-.46l402.8-402.8V664.57H1200a88,88,0,0,1-87.84-88V203.17H260.26a46,46,0,0,0-45.88,46V1895a46,46,0,0,0,46,46H1532.58a46,46,0,0,0,45.87-46V1206.7l-167.19,167.19C1411.11,1374,1410.94,1374.15,1410.79,1374.3ZM532.33,1051.17h471.55a20.93,20.93,0,1,1,0,41.85H532.33a20.93,20.93,0,1,1,0-41.85Zm0,210.74h471.55a20.93,20.93,0,1,1,0,41.86H532.33a20.93,20.93,0,0,1,0-41.86Zm728.17,280.38H532.33a20.93,20.93,0,1,1,0-41.85H1260.5a20.93,20.93,0,1,1,0,41.85Z" transform="translate(-214.38 -203.17)"></path><path class="cls-1" d="M1154,576.61a46.1,46.1,0,0,0,46,46.11h348.52L1154,232.39Z" transform="translate(-214.38 -203.17)"></path><path class="cls-1" d="M1848.48,877.48a124.74,124.74,0,0,0-176.41-176.42l-452,452,176.42,176.41ZM1797,723a20.93,20.93,0,0,1,29.59,29.6L1579.93,999.21a20.93,20.93,0,1,1-29.59-29.6Z" transform="translate(-214.38 -203.17)"></path><polygon class="cls-1" points="949.48 1182.51 1139.83 1143.27 988.73 992.17 949.48 1182.51"></polygon></svg>