<svg xmlns="http://www.w3.org/2000/svg" id="Layer_1" data-name="Layer 1" viewBox="0 0 138.53 140"><defs><style>.cls-1{fill:#3f3f3f;}</style></defs><path class="cls-1" d="M94.62,24.11h0l-62.28-.19a2.8,2.8,0,0,0,0,5.6h0l62.27.19a2.8,2.8,0,0,0,0-5.6Zm0,0" transform="translate(-6.36 -6)"></path><path class="cls-1" d="M31.57,44.07h0a2.8,2.8,0,1,0,0,5.6l48.57.08h0a2.81,2.81,0,0,0,0-5.61l-48.57-.07Zm0,0" transform="translate(-6.36 -6)"></path><path class="cls-1" d="M83.36,64.2h0l-51.79,0a2.81,2.81,0,0,0,0,5.61h0l51.8,0a2.8,2.8,0,1,0,0-5.6Zm0,0" transform="translate(-6.36 -6)"></path><path class="cls-1" d="M62.53,84.18h0l-31,0a2.8,2.8,0,0,0,0,5.6h31a2.81,2.81,0,0,0,0-5.61Zm0,0" transform="translate(-6.36 -6)"></path><path class="cls-1" d="M68.53,98.09h0a2.75,2.75,0,0,0-2,.8L43.09,122.09l-9.31-10.8A2.8,2.8,0,0,0,29.54,115L40.8,128a2.79,2.79,0,0,0,2,1h.11a2.78,2.78,0,0,0,2-.81L70.5,102.89a2.81,2.81,0,0,0-2-4.8Zm0,0" transform="translate(-6.36 -6)"></path><path class="cls-1" d="M108.1,6H9a2.82,2.82,0,0,0-2.62,2.8V143.2a2.71,2.71,0,0,0,.47,1.55A2.77,2.77,0,0,0,9.16,146h98.76a2.8,2.8,0,0,0,2.81-2.8V93.38l-5.61,9V140.4H12V11.61h93.15V49.45l5.61-9.33V8.81a2.3,2.3,0,0,0-.59-1.71,2.6,2.6,0,0,0-2-1.1Zm0,0" transform="translate(-6.36 -6)"></path><path class="cls-1" d="M125.91,23h0a2.8,2.8,0,0,0-2.37,1.3L80.25,92.63a3.76,3.76,0,0,0-.43,1.42h0l-4.66,24.6a2.8,2.8,0,0,0,1.24,2.88,2.85,2.85,0,0,0,1.51.44,2.74,2.74,0,0,0,1.62-.52L100,106.88h0a3.86,3.86,0,0,0,1.13-1L144.45,37.5a2.8,2.8,0,0,0,.37-2.11,2.77,2.77,0,0,0-1.23-1.75L127.41,23.39a2.85,2.85,0,0,0-1.5-.43Zm.86,6.66h0l3.34,2.12-40,63.81-3.62-2.29,40.28-63.64Zm8.08,5.12h0l3.37,2.13L97.93,100.5l-3.09-2Zm-50.21,64h0l9.1,5.76h0l-4,2.84a15.68,15.68,0,0,1-1.74-.26,4.76,4.76,0,0,1-1.54-.59,10.71,10.71,0,0,1-2.7-3.15h0l.88-4.6Zm-2.22,11.71h0a10.93,10.93,0,0,0,1,.76l.46.28-2,1.39Zm0,0" transform="translate(-6.36 -6)"></path></svg>