<svg xmlns="http://www.w3.org/2000/svg" id="Layer_1" data-name="Layer 1" viewBox="0 0 74.26 74.26"><defs><style>.cls-1{fill:#ffc729;}.cls-2{fill:#fcd770;}.cls-3{fill:#e6e9ed;}.cls-4{fill:#b4dd7f;}.cls-5{fill:#ff826e;}.cls-6{fill:#ffeaa7;}</style></defs><path class="cls-1" d="M85.29,27.31v7.18l-3,.76A15.61,15.61,0,0,1,81,38.4l1.6,2.67L77.5,46.15l-2.68-1.61a14.84,14.84,0,0,1-3.15,1.31l-.75,3h-2.4V41.61A10.78,10.78,0,1,0,57,27.77l-2.86-2.86H53c.22-.51.46-1,.73-1.51l-1.6-2.67,5.08-5.08,2.67,1.61A15.61,15.61,0,0,1,63,16l.75-3h7.19l.75,3a15.38,15.38,0,0,1,3.15,1.31l2.68-1.61,5.07,5.08L81,23.4a15.61,15.61,0,0,1,1.31,3.15Z" transform="translate(-12.23 -11.74)"></path><path class="cls-2" d="M78.11,30.9a10.79,10.79,0,0,1-9.59,10.71V39.29L66,36.72a6,6,0,1,0-4.45-4.45L57,27.77a10.78,10.78,0,0,1,21.1,3.13Z" transform="translate(-12.23 -11.74)"></path><polygon class="cls-3" points="41.92 27.55 41.92 13.18 40.73 13.18 1.2 13.18 1.2 73.07 56.3 73.07 56.3 27.55 41.92 27.55"></polygon><path class="cls-1" d="M82.9,59.65a2.4,2.4,0,0,1,0,4.79,2.32,2.32,0,0,1-.92-.18,2.4,2.4,0,0,1,.92-4.61Z" transform="translate(-12.23 -11.74)"></path><path class="cls-1" d="M77.83,74.2a2.42,2.42,0,0,1,1.47,2.22,2.4,2.4,0,0,1-4.79,0,2.35,2.35,0,0,1,.41-1.33,2.4,2.4,0,0,1,2.91-.89Z" transform="translate(-12.23 -11.74)"></path><path class="cls-1" d="M68.52,69.23a2.34,2.34,0,0,1-.4,1.33,2.4,2.4,0,0,1-2,1.07,2.43,2.43,0,0,1-1.79-.81,2.36,2.36,0,0,1-.61-1.59,2.4,2.4,0,0,1,4.79,0Z" transform="translate(-12.23 -11.74)"></path><path class="cls-1" d="M57.13,76a2.32,2.32,0,0,1,.61,1.6,2.4,2.4,0,1,1-.61-1.6Z" transform="translate(-12.23 -11.74)"></path><polygon class="cls-4" points="56.3 27.55 41.92 27.55 41.92 13.18 44.79 16.04 49.28 20.53 53.73 24.99 56.3 27.55"></polygon><path class="cls-5" d="M44.8,53.43a15.57,15.57,0,0,1,0,22l-3.39-3.39a10.77,10.77,0,0,0,0-15.24Z" transform="translate(-12.23 -11.74)"></path><path class="cls-5" d="M44.8,53.43l-3.39,3.39a10.77,10.77,0,0,0-15.24,0l-3.39-3.39a15.57,15.57,0,0,1,22,0Z" transform="translate(-12.23 -11.74)"></path><path class="cls-5" d="M41.41,72.06l3.39,3.39a15.57,15.57,0,0,1-22,0l3.39-3.39a10.77,10.77,0,0,0,15.24,0Z" transform="translate(-12.23 -11.74)"></path><path class="cls-6" d="M41.41,56.82a10.77,10.77,0,1,1-7.62-3.16A10.74,10.74,0,0,1,41.41,56.82Z" transform="translate(-12.23 -11.74)"></path><path class="cls-4" d="M26.17,72.06l-3.39,3.39a15.57,15.57,0,0,1,0-22l3.39,3.39a10.77,10.77,0,0,0,0,15.24Z" transform="translate(-12.23 -11.74)"></path><path d="M71.86,50.07H68.51v-2.4H70l.7-2.78.66-.19a15.33,15.33,0,0,0,2.91-1.2l.6-.34,2.46,1.48,3.75-3.76-1.47-2.45.33-.61a13.9,13.9,0,0,0,1.2-2.91l.19-.66,2.79-.69V28.24l-2.79-.69-.19-.66A14.13,14.13,0,0,0,79.92,24l-.33-.61,1.47-2.45-3.75-3.76-2.46,1.48-.6-.33a14.13,14.13,0,0,0-2.91-1.2l-.66-.2L70,14.13H64.67L64,16.91l-.67.2a14.13,14.13,0,0,0-2.91,1.2l-.6.33-2.45-1.48-3.76,3.76,1.47,2.45-.33.61a12.58,12.58,0,0,0-.66,1.39l-2.22-.91c.14-.35.29-.68.46-1l-1.74-2.89L57,14.15l2.89,1.73A18,18,0,0,1,62,15l.82-3.27h9.06L72.67,15a18.84,18.84,0,0,1,2.12.87l2.89-1.73,6.4,6.4-1.74,2.89a15.59,15.59,0,0,1,.87,2.11l3.28.82v9.06l-3.28.82a15.08,15.08,0,0,1-.87,2.11l1.74,2.89-6.4,6.4-2.89-1.73a18.84,18.84,0,0,1-2.12.87Z" transform="translate(-12.23 -11.74)"></path><path d="M67.33,38.09a7,7,0,0,1-1.65-.21l.55-2.33a4.48,4.48,0,0,0,1.1.14,4.79,4.79,0,1,0-4.79-4.79,4.48,4.48,0,0,0,.14,1.1l-2.34.55a7.57,7.57,0,0,1-.2-1.65,7.19,7.19,0,1,1,7.19,7.19Z" transform="translate(-12.23 -11.74)"></path><polygon points="57.49 74.26 0 74.26 0 11.98 42.42 11.98 57.49 27.05 57.49 51.51 55.1 51.51 55.1 28.05 41.43 14.37 2.4 14.37 2.4 71.87 55.1 71.87 55.1 63.48 57.49 63.48 57.49 74.26"></polygon><path d="M33.79,81.21A16.77,16.77,0,1,1,50.56,64.44,16.79,16.79,0,0,1,33.79,81.21Zm0-31.14A14.37,14.37,0,1,0,48.16,64.44,14.39,14.39,0,0,0,33.79,50.07Z" transform="translate(-12.23 -11.74)"></path><path d="M33.79,76.42a12,12,0,1,1,12-12A12,12,0,0,1,33.79,76.42Zm0-21.56a9.58,9.58,0,1,0,9.58,9.58A9.59,9.59,0,0,0,33.79,54.86Z" transform="translate(-12.23 -11.74)"></path><rect x="23.27" y="52.73" width="2.4" height="4.79" transform="translate(-44.04 21.71) rotate(-45)"></rect><rect x="22.08" y="72.56" width="4.79" height="2.4" transform="translate(-57.21 27.17) rotate(-45)"></rect><rect x="41.91" y="71.36" width="2.4" height="4.79" transform="translate(-51.76 40.35) rotate(-45)"></rect><rect x="40.71" y="53.92" width="4.79" height="2.4" transform="translate(-38.58 34.89) rotate(-45)"></rect><rect x="4.79" y="16.77" width="2.4" height="2.4"></rect><rect x="9.58" y="16.77" width="23.96" height="2.4"></rect><rect x="4.79" y="21.56" width="28.75" height="2.4"></rect><rect x="4.79" y="26.35" width="28.75" height="2.4"></rect><rect x="4.79" y="31.14" width="28.75" height="2.4"></rect><path d="M55.35,81.21a3.6,3.6,0,1,1,3.59-3.59A3.59,3.59,0,0,1,55.35,81.21Zm0-4.79a1.2,1.2,0,1,0,1.2,1.2A1.2,1.2,0,0,0,55.35,76.42Z" transform="translate(-12.23 -11.74)"></path><path d="M66.13,72.82a3.59,3.59,0,1,1,3.59-3.59A3.59,3.59,0,0,1,66.13,72.82Zm0-4.79a1.2,1.2,0,1,0,1.2,1.2A1.2,1.2,0,0,0,66.13,68Z" transform="translate(-12.23 -11.74)"></path><path d="M76.91,80a3.6,3.6,0,1,1,3.59-3.59A3.59,3.59,0,0,1,76.91,80Zm0-4.79a1.2,1.2,0,1,0,1.2,1.2A1.2,1.2,0,0,0,76.91,75.22Z" transform="translate(-12.23 -11.74)"></path><path d="M82.9,65.64A3.6,3.6,0,1,1,86.49,62,3.6,3.6,0,0,1,82.9,65.64Zm0-4.79A1.2,1.2,0,1,0,84.1,62,1.19,1.19,0,0,0,82.9,60.85Z" transform="translate(-12.23 -11.74)"></path><rect x="74.51" y="68.03" width="10.78" height="2.4" transform="translate(-26.97 104.6) rotate(-67.37)"></rect><rect x="70.32" y="68.74" width="2.4" height="8.17" transform="translate(-40.97 80.2) rotate(-56.31)"></rect><rect x="56.29" y="72.23" width="8.89" height="2.4" transform="translate(-43.73 37.76) rotate(-35.86)"></rect><polygon points="56.3 28.75 40.73 28.75 40.73 13.18 43.12 13.18 43.12 26.35 56.3 26.35 56.3 28.75"></polygon><path d="M68.66,42.8l-.27-2.38a9.58,9.58,0,1,0-10.23-12.3l-2.3-.7A12,12,0,1,1,68.66,42.8Z" transform="translate(-12.23 -11.74)"></path></svg>