<svg xmlns="http://www.w3.org/2000/svg" id="Layer_1" data-name="Layer 1" viewBox="0 0 62 72.54"><defs><style>.cls-1{fill:#838f9b;}.cls-2{fill:#aab2bd;}.cls-3{fill:#69d6f4;}.cls-4{fill:#ff826e;}.cls-5{fill:#e6e9ed;}.cls-6{fill:#b4dd7f;}</style></defs><path d="M32.21,86.1a.36.36,0,0,1-.11-.26V81.1a.33.33,0,0,1,.11-.26.34.34,0,0,1,.26-.1h1.67a1.84,1.84,0,0,1,.83.18,1.41,1.41,0,0,1,.78,1.27,1,1,0,0,1-.19.62,1.34,1.34,0,0,1-.5.44,1.25,1.25,0,0,1,1,1.3,1.61,1.61,0,0,1-.23.85,1.47,1.47,0,0,1-.64.59,2,2,0,0,1-.92.21H32.47A.34.34,0,0,1,32.21,86.1ZM34.14,83a1,1,0,0,0,.66-.2.71.71,0,0,0,.25-.59.68.68,0,0,0-.25-.58,1,1,0,0,0-.66-.2H32.83V83Zm.15,2.55a1.14,1.14,0,0,0,.79-.26.89.89,0,0,0,.3-.72.77.77,0,0,0-.3-.66,1.22,1.22,0,0,0-.79-.24H32.83v1.88Z" transform="translate(-18.69 -13.74)"></path><path d="M40.78,85.87a.32.32,0,0,1-.09.24.37.37,0,0,1-.26.09.36.36,0,0,1-.31-.17L38.91,84.1h-1v1.74a.34.34,0,0,1-.36.36.34.34,0,0,1-.26-.1.36.36,0,0,1-.11-.26V81.1a.33.33,0,0,1,.11-.26.34.34,0,0,1,.26-.1h1.26a2,2,0,0,1,.92.21,1.57,1.57,0,0,1,.64.61,1.77,1.77,0,0,1,.23.9,1.55,1.55,0,0,1-.94,1.46l1.07,1.72A.41.41,0,0,1,40.78,85.87Zm-2-2.45a1.14,1.14,0,0,0,.78-.27.86.86,0,0,0,.31-.69,1,1,0,0,0-.31-.76,1.11,1.11,0,0,0-.78-.29h-.9v2Z" transform="translate(-18.69 -13.74)"></path><path d="M42.67,85.92a2.57,2.57,0,0,1-1-1,3,3,0,0,1-.34-1.45A3,3,0,0,1,41.68,82a2.57,2.57,0,0,1,1-1,3.14,3.14,0,0,1,2.88,0,2.57,2.57,0,0,1,1,1,3,3,0,0,1,.35,1.45,3,3,0,0,1-.35,1.45,2.55,2.55,0,0,1-1,1,3.16,3.16,0,0,1-2.89,0Zm2.51-.59a2.05,2.05,0,0,0,.75-.77,2.44,2.44,0,0,0,0-2.19,2.1,2.1,0,0,0-.74-.77,2.17,2.17,0,0,0-1.08-.28A2.11,2.11,0,0,0,43,81.6a2,2,0,0,0-.74.77,2.44,2.44,0,0,0,0,2.19,2.1,2.1,0,0,0,.74.77,2.06,2.06,0,0,0,1.07.28A2,2,0,0,0,45.18,85.33Z" transform="translate(-18.69 -13.74)"></path><path d="M53.68,80.82a.32.32,0,0,1,.07.22.64.64,0,0,1,0,.2l-1.4,4.67a.41.41,0,0,1-.15.21.29.29,0,0,1-.22.08.32.32,0,0,1-.22-.08.41.41,0,0,1-.14-.2l-1-4-1.06,4a.46.46,0,0,1-.14.21.32.32,0,0,1-.22.08.37.37,0,0,1-.23-.07.6.6,0,0,1-.14-.21l-1.41-4.68a1.11,1.11,0,0,1,0-.19.3.3,0,0,1,.08-.23.26.26,0,0,1,.22-.08.34.34,0,0,1,.22.07A.32.32,0,0,1,48,81l1.15,4,1.06-4a.27.27,0,0,1,.13-.17.34.34,0,0,1,.22-.07.43.43,0,0,1,.22.06.3.3,0,0,1,.12.17L52,85,53.12,81a.29.29,0,0,1,.12-.18.41.41,0,0,1,.23-.05A.23.23,0,0,1,53.68,80.82Z" transform="translate(-18.69 -13.74)"></path><path d="M55,86a1.65,1.65,0,0,1-.77-.8.44.44,0,0,1,0-.14.28.28,0,0,1,.07-.19.41.41,0,0,1,.21-.1h.08a.42.42,0,0,1,.21.06A.43.43,0,0,1,55,85a1,1,0,0,0,.5.47,1.82,1.82,0,0,0,.81.18,1.55,1.55,0,0,0,.89-.24.74.74,0,0,0,.37-.66.89.89,0,0,0-.31-.68,1.63,1.63,0,0,0-.94-.35,2.36,2.36,0,0,1-1.36-.5,1.37,1.37,0,0,1-.5-1.07,1.23,1.23,0,0,1,.26-.77,1.6,1.6,0,0,1,.7-.5,2.78,2.78,0,0,1,1-.17,1.93,1.93,0,0,1,1,.25,2,2,0,0,1,.7.7.52.52,0,0,1,.08.25.28.28,0,0,1-.14.25.35.35,0,0,1-.18,0,.49.49,0,0,1-.2,0A.47.47,0,0,1,57.5,82,1.15,1.15,0,0,0,57,81.5a1.42,1.42,0,0,0-.72-.17,1.59,1.59,0,0,0-.86.21.66.66,0,0,0-.33.6.74.74,0,0,0,.3.6,1.9,1.9,0,0,0,1,.33,2.17,2.17,0,0,1,1.3.5,1.46,1.46,0,0,1,.46,1.12,1.43,1.43,0,0,1-.27.87,1.53,1.53,0,0,1-.73.53,2.58,2.58,0,0,1-1,.18A2.44,2.44,0,0,1,55,86Z" transform="translate(-18.69 -13.74)"></path><path d="M59.45,86.1a.35.35,0,0,1-.1-.26V81.1a.33.33,0,0,1,.1-.26.35.35,0,0,1,.26-.1h3.16a.36.36,0,0,1,.26.09.32.32,0,0,1,.1.25.3.3,0,0,1-.1.24.36.36,0,0,1-.26.09h-2.8v1.7h2a.37.37,0,0,1,.26.09.33.33,0,0,1,.1.24.33.33,0,0,1-.1.25.37.37,0,0,1-.26.09h-2v1.75h2.8a.36.36,0,0,1,.26.09.3.3,0,0,1,.1.24.32.32,0,0,1-.1.25.36.36,0,0,1-.26.09H59.71A.35.35,0,0,1,59.45,86.1Z" transform="translate(-18.69 -13.74)"></path><path d="M67.87,85.87a.33.33,0,0,1-.1.24A.39.39,0,0,1,67.2,86L66,84.1H65v1.74a.35.35,0,0,1-.1.26.34.34,0,0,1-.26.1.34.34,0,0,1-.36-.36V81.1a.33.33,0,0,1,.1-.26.35.35,0,0,1,.26-.1h1.26a2.05,2.05,0,0,1,.93.21,1.61,1.61,0,0,1,.63.61,1.68,1.68,0,0,1,.23.9,1.55,1.55,0,0,1-.94,1.46l1.08,1.72A.51.51,0,0,1,67.87,85.87Zm-2-2.45a1.12,1.12,0,0,0,.78-.27.86.86,0,0,0,.31-.69,1,1,0,0,0-.31-.76,1.09,1.09,0,0,0-.78-.29H65v2Z" transform="translate(-18.69 -13.74)"></path><path class="cls-1" d="M79.69,66.74v4a4,4,0,0,1-4,4h-52a4,4,0,0,1-4-4v-4h22a6.84,6.84,0,0,0,4.83,2h6.34a6.84,6.84,0,0,0,4.83-2h22Z" transform="translate(-18.69 -13.74)"></path><path class="cls-2" d="M77.69,32.74v34h-4v-33a1,1,0,0,0-1-1h-3v-4h4A4,4,0,0,1,77.69,32.74Z" transform="translate(-18.69 -13.74)"></path><path class="cls-2" d="M29.69,28.74v4h-3a1,1,0,0,0-1,1v33h-4v-34a4,4,0,0,1,4-4Z" transform="translate(-18.69 -13.74)"></path><path class="cls-3" d="M73.69,33.73v33h-16a6.84,6.84,0,0,1-4.83,2H46.52a6.84,6.84,0,0,1-4.83-2h-16v-33a1,1,0,0,1,1-1h3v26H39.1a16,16,0,0,0,21.18,0h9.41v-26h3A1,1,0,0,1,73.69,33.73Z" transform="translate(-18.69 -13.74)"></path><rect class="cls-4" x="11" y="1" width="40" height="8"></rect><path class="cls-5" d="M69.69,32.74v26H60.28a16.27,16.27,0,0,0,3.39-4.21,15.91,15.91,0,0,0,2-7.79,16.53,16.53,0,0,0-.18-2.45A16,16,0,0,0,50.16,30.75h-.47a16,16,0,0,0-15.87,14,14.71,14.71,0,0,0-.13,2A16,16,0,0,0,39,58.67l.08.07H29.69v-36h40v10Z" transform="translate(-18.69 -13.74)"></path><path class="cls-3" d="M49.69,30.74h.47a5,5,0,0,0-.47,2.12,5.13,5.13,0,0,0,1.19,3.29l2.79,3.34a4.42,4.42,0,0,1,1,2.82,4.4,4.4,0,0,0,4.41,4.41,9.28,9.28,0,0,0,3.47-.66,9.56,9.56,0,0,0,2.91-1.79h0a16.53,16.53,0,0,1,.18,2.45,15.91,15.91,0,0,1-2,7.79h0a9.84,9.84,0,0,0-6.88-2.79,5.87,5.87,0,0,1-5.81-5,2.29,2.29,0,0,0-4.53,0L46,50.55A5.87,5.87,0,0,1,44,54.21l-5,4.44,0,0a16,16,0,0,1-5.33-11.93,14.71,14.71,0,0,1,.13-2h.87a4,4,0,0,1,4,4,2,2,0,1,0,4,0V46.07a4,4,0,0,1,.8-2.4l1.3-1.73a4.5,4.5,0,0,0-3.6-7.2H39.12A15.91,15.91,0,0,1,49.69,30.74Z" transform="translate(-18.69 -13.74)"></path><path class="cls-6" d="M65.51,44.29h0a9.56,9.56,0,0,1-2.91,1.79,9.28,9.28,0,0,1-3.47.66,4.4,4.4,0,0,1-4.41-4.41,4.42,4.42,0,0,0-1-2.82l-2.79-3.34a5.13,5.13,0,0,1-1.19-3.29,5,5,0,0,1,.47-2.12h0A16,16,0,0,1,65.51,44.29Z" transform="translate(-18.69 -13.74)"></path><path class="cls-6" d="M60.28,58.74a16,16,0,0,1-21.18,0L39,58.67l0,0,5-4.44A5.87,5.87,0,0,0,46,50.55l.48-3.81a2.29,2.29,0,0,1,4.53,0,5.87,5.87,0,0,0,5.81,5,9.84,9.84,0,0,1,6.88,2.79h0A16.27,16.27,0,0,1,60.28,58.74Z" transform="translate(-18.69 -13.74)"></path><path class="cls-6" d="M33.82,44.74a15.89,15.89,0,0,1,5.3-10h2.07a4.5,4.5,0,0,1,3.6,7.2l-1.3,1.73a4,4,0,0,0-.8,2.4v2.67a2,2,0,1,1-4,0,4,4,0,0,0-4-4h-.87Z" transform="translate(-18.69 -13.74)"></path><rect x="6" y="56" width="2" height="2"></rect><rect x="10" y="56" width="2" height="2"></rect><rect x="14" y="56" width="2" height="2"></rect><rect x="48" y="56" width="8" height="2"></rect><path d="M22.69,66.74h-2v-34a5,5,0,0,1,5-5h4v2h-4a3,3,0,0,0-3,3Z" transform="translate(-18.69 -13.74)"></path><path d="M78.69,66.74h-2v-34a3,3,0,0,0-3-3h-4v-2h4a5,5,0,0,1,5,5Z" transform="translate(-18.69 -13.74)"></path><path d="M75.69,75.74h-52a5,5,0,0,1-5-5v-5h6v-32a2,2,0,0,1,2-2h3v2h-3v34h-6v3a3,3,0,0,0,3,3h52a3,3,0,0,0,3-3v-3H58.08a7.89,7.89,0,0,1-5.22,2H46.51a7.93,7.93,0,0,1-5.22-2H28.69v-2H42.1l.29.29a5.91,5.91,0,0,0,4.12,1.71h6.35A5.91,5.91,0,0,0,57,66l.29-.29H80.69v5A5,5,0,0,1,75.69,75.74Z" transform="translate(-18.69 -13.74)"></path><path d="M74.69,66.74h-2v-33l-3,0v-2l3,0a2,2,0,0,1,2,2Z" transform="translate(-18.69 -13.74)"></path><rect x="14" y="4" width="2" height="2"></rect><rect x="18" y="4" width="2" height="2"></rect><rect x="22" y="4" width="2" height="2"></rect><rect x="11" y="8" width="40" height="2"></rect><polygon points="52 46 41.56 46 41.56 44 50 44 50 2 12 2 12 44 20.44 44 20.44 46 10 46 10 0 52 0 52 46"></polygon><path d="M59.09,47.74a5.41,5.41,0,0,1-5.4-5.41,3.42,3.42,0,0,0-.79-2.18l-2.79-3.34a6.16,6.16,0,0,1-1.42-3.93,6,6,0,0,1,.55-2.53l1.82.82a4.12,4.12,0,0,0-.37,1.71,4.17,4.17,0,0,0,1,2.65l2.78,3.34a5.41,5.41,0,0,1,1.26,3.46,3.41,3.41,0,0,0,3.4,3.41,8.54,8.54,0,0,0,5.72-2.2L66.15,45A10.61,10.61,0,0,1,59.09,47.74Z" transform="translate(-18.69 -13.74)"></path><path d="M49.69,63.74a17,17,0,1,1,17-17A17,17,0,0,1,49.69,63.74Zm0-32a15,15,0,1,0,15,15A15,15,0,0,0,49.69,31.74Z" transform="translate(-18.69 -13.74)"></path><path d="M40.69,51.74a3,3,0,0,1-3-3,3,3,0,0,0-3-3h-.86v-2h.86a5,5,0,0,1,5,5,1,1,0,1,0,2,0V46.07a5,5,0,0,1,1-3L44,41.34a3.55,3.55,0,0,0,.7-2.1,3.5,3.5,0,0,0-3.5-3.5H39.13v-2h2.06a5.5,5.5,0,0,1,4.4,8.8l-1.3,1.73a3,3,0,0,0-.6,1.8v2.67A3,3,0,0,1,40.69,51.74Z" transform="translate(-18.69 -13.74)"></path><path d="M39.7,59.4l-1.33-1.5,5-4.44a4.89,4.89,0,0,0,1.6-3l.47-3.81a3.29,3.29,0,0,1,6.52,0,4.89,4.89,0,0,0,4.82,4.18,10.85,10.85,0,0,1,7.57,3.07L63,55.24a8.88,8.88,0,0,0-6.18-2.5,6.9,6.9,0,0,1-6.8-5.9,1.29,1.29,0,0,0-2.55,0L47,50.67A6.82,6.82,0,0,1,44.7,55Z" transform="translate(-18.69 -13.74)"></path></svg>