<svg xmlns="http://www.w3.org/2000/svg" id="Layer_1" data-name="Layer 1" viewBox="0 0 77 77"><defs><style>.cls-1{fill:#838f9b;}.cls-2{fill:#aab2bd;}.cls-3{fill:#69d6f4;}.cls-4{fill:#ff826e;}.cls-5{fill:#e6e9ed;}.cls-6{fill:#b4dd7f;}</style></defs><path class="cls-1" d="M85.76,78.56v5a5,5,0,0,1-5,5H16.21a5,5,0,0,1-5-5v-5H38.56a8.5,8.5,0,0,0,6,2.48h7.88a8.5,8.5,0,0,0,6-2.48H85.76Z" transform="translate(-10 -12.74)"></path><path class="cls-2" d="M83.27,36.33V78.56h-5v-41a1.24,1.24,0,0,0-1.23-1.24H73.34v-5h5A5,5,0,0,1,83.27,36.33Z" transform="translate(-10 -12.74)"></path><path class="cls-2" d="M23.66,31.36v5H19.94a1.25,1.25,0,0,0-1.25,1.24v41h-5V36.33a5,5,0,0,1,5-5Z" transform="translate(-10 -12.74)"></path><path class="cls-3" d="M78.31,37.56v41H58.44a8.5,8.5,0,0,1-6,2.48H44.56a8.5,8.5,0,0,1-6-2.48H18.69v-41a1.25,1.25,0,0,1,1.25-1.24h3.72V68.62H35.35a19.88,19.88,0,0,0,26.3,0H73.34V36.33h3.74A1.24,1.24,0,0,1,78.31,37.56Z" transform="translate(-10 -12.74)"></path><rect class="cls-4" x="13.66" y="1.24" width="49.68" height="9.94"></rect><path class="cls-5" d="M73.34,36.33V68.62H61.65a19.87,19.87,0,0,0,6.72-14.9,20.33,20.33,0,0,0-.22-3A19.88,19.88,0,0,0,49.08,33.86H48.5A19.85,19.85,0,0,0,28.79,51.24a18.56,18.56,0,0,0-.16,2.48,19.85,19.85,0,0,0,6.62,14.82.44.44,0,0,0,.1.08H23.66V23.91H73.34V36.33Z" transform="translate(-10 -12.74)"></path><path class="cls-3" d="M48.5,33.85h.58a6.34,6.34,0,0,0,.9,6.72l3.46,4.15a5.48,5.48,0,0,1,1.27,3.5,5.48,5.48,0,0,0,5.48,5.48,11.64,11.64,0,0,0,4.31-.82,12,12,0,0,0,3.61-2.22h0a20.33,20.33,0,0,1,.22,3,19.75,19.75,0,0,1-2.51,9.67h0a12.26,12.26,0,0,0-8.54-3.46,7.29,7.29,0,0,1-7.22-6.26,2.84,2.84,0,0,0-5.63,0l-.59,4.73A7.29,7.29,0,0,1,41.48,63l-6.21,5.51,0,0a19.85,19.85,0,0,1-6.62-14.82,18.56,18.56,0,0,1,.16-2.48h1.08a5,5,0,0,1,5,5,2.49,2.49,0,1,0,5,0V52.89a5,5,0,0,1,1-3l1.61-2.15a5.64,5.64,0,0,0,1.12-3.35,5.57,5.57,0,0,0-5.59-5.59H35.39l0,0A19.79,19.79,0,0,1,48.5,33.85Z" transform="translate(-10 -12.74)"></path><path class="cls-6" d="M68.15,50.68h0A12,12,0,0,1,64.5,52.9a11.64,11.64,0,0,1-4.31.82,5.48,5.48,0,0,1-5.48-5.48,5.48,5.48,0,0,0-1.27-3.5L50,40.59a6.34,6.34,0,0,1-.9-6.72h0A19.88,19.88,0,0,1,68.15,50.68Z" transform="translate(-10 -12.74)"></path><path class="cls-6" d="M61.65,68.62a19.88,19.88,0,0,1-26.3,0,.44.44,0,0,1-.1-.08l0,0L41.48,63a7.29,7.29,0,0,0,2.39-4.55l.59-4.73a2.84,2.84,0,0,1,5.63,0,7.29,7.29,0,0,0,7.22,6.26,12.26,12.26,0,0,1,8.54,3.46h0A19.94,19.94,0,0,1,61.65,68.62Z" transform="translate(-10 -12.74)"></path><path class="cls-6" d="M28.79,51.24A19.76,19.76,0,0,1,35.37,38.8l0,0h2.55a5.57,5.57,0,0,1,5.59,5.59,5.64,5.64,0,0,1-1.12,3.35L40.8,49.91a5,5,0,0,0-1,3V56.2a2.49,2.49,0,1,1-5,0,5,5,0,0,0-5-5H28.79Z" transform="translate(-10 -12.74)"></path><rect x="7.45" y="69.55" width="2.48" height="2.48"></rect><rect x="12.42" y="69.55" width="2.48" height="2.48"></rect><rect x="17.39" y="69.55" width="2.48" height="2.48"></rect><rect x="59.61" y="69.55" width="9.94" height="2.48"></rect><path d="M15,78.56H12.48V36.33a6.22,6.22,0,0,1,6.21-6.21h5v2.49h-5A3.73,3.73,0,0,0,15,36.33Z" transform="translate(-10 -12.74)"></path><path d="M84.52,78.56H82V36.33a3.73,3.73,0,0,0-3.72-3.72h-5V30.12h5a6.22,6.22,0,0,1,6.21,6.21Z" transform="translate(-10 -12.74)"></path><path d="M80.79,89.74H16.21A6.22,6.22,0,0,1,10,83.53V77.32h7.45V37.57a2.49,2.49,0,0,1,2.49-2.48h3.72v2.48H19.94V79.8H12.48v3.73a3.73,3.73,0,0,0,3.73,3.72H80.79a3.73,3.73,0,0,0,3.73-3.72V79.8H58.93a9.82,9.82,0,0,1-6.49,2.48H44.56a9.82,9.82,0,0,1-6.49-2.48H22.42V77.32H39.08l.36.36a7.3,7.3,0,0,0,5.12,2.12h7.88a7.3,7.3,0,0,0,5.12-2.12l.36-.36H87v6.21A6.22,6.22,0,0,1,80.79,89.74Z" transform="translate(-10 -12.74)"></path><path d="M79.55,78.56H77.06v-41H73.34V35.09h3.74a2.49,2.49,0,0,1,2.48,2.48Z" transform="translate(-10 -12.74)"></path><rect x="17.39" y="4.97" width="2.48" height="2.48"></rect><rect x="22.35" y="4.97" width="2.48" height="2.48"></rect><rect x="27.32" y="4.97" width="2.48" height="2.48"></rect><rect x="13.66" y="9.94" width="49.68" height="2.48"></rect><polygon points="64.58 57.13 51.61 57.13 51.61 54.65 62.1 54.65 62.1 2.48 14.9 2.48 14.9 54.65 25.39 54.65 25.39 57.13 12.42 57.13 12.42 0 64.58 0 64.58 57.13"></polygon><path d="M60.18,55a6.72,6.72,0,0,1-6.71-6.71,4.25,4.25,0,0,0-1-2.71L49,41.39a7.64,7.64,0,0,1-1.77-4.88A7.55,7.55,0,0,1,48,33.36l2.26,1a5.11,5.11,0,0,0-.47,2.12,5.21,5.21,0,0,0,1.19,3.29L54.4,44A6.73,6.73,0,0,1,56,48.25a4.24,4.24,0,0,0,4.23,4.23,10.66,10.66,0,0,0,7.11-2.73l1.65,1.85A13.1,13.1,0,0,1,60.18,55Z" transform="translate(-10 -12.74)"></path><path d="M48.5,74.83A21.11,21.11,0,1,1,69.61,53.72,21.13,21.13,0,0,1,48.5,74.83Zm0-39.74A18.63,18.63,0,1,0,67.13,53.72,18.65,18.65,0,0,0,48.5,35.09Z" transform="translate(-10 -12.74)"></path><path d="M37.32,59.93A3.73,3.73,0,0,1,33.6,56.2a3.73,3.73,0,0,0-3.73-3.72H28.8V50h1.07a6.22,6.22,0,0,1,6.21,6.21,1.24,1.24,0,1,0,2.48,0V52.89a6.24,6.24,0,0,1,1.25-3.72L41.42,47a4.34,4.34,0,0,0-3.48-6.95H35.39V37.57h2.55A6.84,6.84,0,0,1,43.41,48.5l-1.62,2.16a3.73,3.73,0,0,0-.74,2.23V56.2A3.73,3.73,0,0,1,37.32,59.93Z" transform="translate(-10 -12.74)"></path><path d="M36.09,69.44l-1.65-1.85,6.22-5.52a6.09,6.09,0,0,0,2-3.77l.59-4.73a4.08,4.08,0,0,1,8.09-.07,6.07,6.07,0,0,0,6,5.19,13.45,13.45,0,0,1,9.41,3.81L65,64.28a11.05,11.05,0,0,0-7.69-3.11,8.58,8.58,0,0,1-8.44-7.32,1.59,1.59,0,0,0-3.16,0l-.6,4.72a8.45,8.45,0,0,1-2.79,5.32Z" transform="translate(-10 -12.74)"></path></svg>