<svg xmlns="http://www.w3.org/2000/svg" id="Capa_1" data-name="Capa 1" viewBox="0 0 1194.73 1242.85"><defs><style>.cls-1{fill:#1f1f1f;}</style></defs><path class="cls-1" d="M1318.93,1276.78l-.42.36a15.48,15.48,0,0,1-2.91,2l-.3.13a14.68,14.68,0,0,1-3.6,1.27l-185.6,38.26a14.74,14.74,0,0,1-3,.31,15,15,0,0,1-14.66-18l5.58-27.07v0l32.68-158.49A15,15,0,0,1,1148,1112l.14-.33a15.15,15.15,0,0,1,2-2.89c.13-.14.24-.29.37-.42s.18-.23.28-.33l288.07-288.07V769.21H1168.14a62.93,62.93,0,0,1-62.82-62.9V439.24H496.1a32.89,32.89,0,0,0-32.81,32.89V1649.2a32.93,32.93,0,0,0,32.9,32.88H1406a32.88,32.88,0,0,0,32.81-32.88V1156.92L1319.26,1276.5C1319.15,1276.6,1319,1276.68,1318.93,1276.78ZM690.68,1045.69h337.24a15,15,0,0,1,0,29.93H690.68a15,15,0,1,1,0-29.93Zm0,150.72h337.24a15,15,0,0,1,0,29.93H690.68a15,15,0,1,1,0-29.93Zm520.76,200.52H690.68a15,15,0,1,1,0-29.94h520.76a15,15,0,0,1,0,29.94Z" transform="translate(-463.29 -439.24)"></path><path class="cls-1" d="M1135.25,706.31a33,33,0,0,0,32.89,33h249.25L1135.25,460.13Z" transform="translate(-463.29 -439.24)"></path><path class="cls-1" d="M1632,921.48a89.22,89.22,0,0,0-126.17-126.17l-323.27,323.27,126.16,126.16ZM1595.09,811a15,15,0,1,1,21.16,21.17l-176.37,176.36a15,15,0,0,1-21.16-21.16Z" transform="translate(-463.29 -439.24)"></path><polygon class="cls-1" points="679.03 845.69 815.16 817.62 707.1 709.56 679.03 845.69"></polygon></svg>