<svg xmlns="http://www.w3.org/2000/svg" id="Layer_1" data-name="Layer 1" viewBox="0 0 81.26 81.26"><defs><style>.cls-1{fill:#e6e9ed;}.cls-2{fill:#fcd770;}.cls-3{fill:#aab2bd;}.cls-4{fill:#b4dd7f;}.cls-5{fill:#969faa;}.cls-6{fill:#ff826e;}</style></defs><path class="cls-1" d="M56.61,32V50.37H23.84a3.92,3.92,0,0,0-3.93,3.93V72.65a3.93,3.93,0,0,1-7.86,0V16.29H51.37v7.86A2.63,2.63,0,0,0,54,26.78h2.62V32Z" transform="translate(-10.74 -9.74)"></path><path class="cls-2" d="M27.78,66.1V76.58H16a3.93,3.93,0,0,0,3.93-3.93V54.3a3.94,3.94,0,0,1,7.87,0Z" transform="translate(-10.74 -9.74)"></path><polygon class="cls-1" points="17.04 79.95 17.04 66.85 17.04 56.36 20.97 56.36 57.67 56.36 61.6 56.36 61.6 64.22 43.25 64.22 32.77 69.47 43.25 74.71 61.6 74.71 61.6 79.95 17.04 79.95"></polygon><path class="cls-1" d="M27.78,66.1V54.3a3.94,3.94,0,0,0-3.94-3.93H67.1a5.24,5.24,0,0,1,5.24,5.24V66.1H27.78Z" transform="translate(-10.74 -9.74)"></path><path class="cls-2" d="M80.2,13.67V24.15a2.63,2.63,0,0,1-2.62,2.63H64.48L56.61,32V26.78H54a2.63,2.63,0,0,1-2.62-2.63V13.67A2.63,2.63,0,0,1,54,11.05H77.58A2.63,2.63,0,0,1,80.2,13.67Z" transform="translate(-10.74 -9.74)"></path><path class="cls-3" d="M90.69,76.58v5.25a2.63,2.63,0,0,1-2.62,2.62H80.2V74h7.87A2.63,2.63,0,0,1,90.69,76.58Z" transform="translate(-10.74 -9.74)"></path><polygon class="cls-4" points="69.47 64.22 69.47 69.47 43.25 69.47 43.25 64.22 61.6 64.22 69.47 64.22"></polygon><polygon class="cls-2" points="69.47 69.47 69.47 74.71 61.6 74.71 43.25 74.71 43.25 69.47 69.47 69.47"></polygon><polygon class="cls-5" points="43.25 69.47 43.25 74.71 32.77 69.47 43.25 64.22 43.25 69.47"></polygon><path class="cls-2" d="M34.33,33.33v11.8A11.79,11.79,0,0,1,26,25Z" transform="translate(-10.74 -9.74)"></path><path class="cls-6" d="M46.13,33.33H34.33L26,25a11.79,11.79,0,0,1,20.14,8.34Z" transform="translate(-10.74 -9.74)"></path><path class="cls-4" d="M34.33,33.33h11.8a11.81,11.81,0,0,1-11.8,11.8Z" transform="translate(-10.74 -9.74)"></path><rect x="41.94" y="64.22" width="2.62" height="10.49"></rect><rect x="68.16" y="64.22" width="2.62" height="10.49"></rect><rect x="43.25" y="68.16" width="26.21" height="2.62"></rect><path d="M88.07,85.76H53.68L40.57,79.2l13.11-6.55H68.41v2.62H54.3L46.43,79.2l7.87,3.94H88.07a1.31,1.31,0,0,0,1.31-1.31V76.58a1.31,1.31,0,0,0-1.31-1.31H71V55.61a3.94,3.94,0,0,0-3.93-3.93H23.84V49.06H67.1a6.56,6.56,0,0,1,6.55,6.55v17H88.07A3.93,3.93,0,0,1,92,76.58v5.25A3.94,3.94,0,0,1,88.07,85.76Z" transform="translate(-10.74 -9.74)"></path><rect x="44.56" y="27.52" width="2.62" height="13.11"></rect><rect x="5.24" y="65.54" width="11.8" height="2.62"></rect><path d="M73.65,91H26.46V54.3a2.62,2.62,0,0,0-5.24,0V72.65a5.24,5.24,0,0,1-10.48,0V15H50.06V13.67A3.93,3.93,0,0,1,54,9.74H77.58a3.93,3.93,0,0,1,3.93,3.93V24.15a3.94,3.94,0,0,1-3.93,3.94H64.87L55.3,34.47V28.09H54a3.94,3.94,0,0,1-3.93-3.94V20.22h2.62v3.93A1.31,1.31,0,0,0,54,25.46h3.93v4.11l6.16-4.11h13.5a1.3,1.3,0,0,0,1.31-1.31V13.67a1.3,1.3,0,0,0-1.31-1.31H54a1.31,1.31,0,0,0-1.31,1.31V17.6H13.36V72.65a2.62,2.62,0,1,0,5.24,0V54.3a5.25,5.25,0,0,1,10.49,0V88.38H71V84.45h2.62Z" transform="translate(-10.74 -9.74)"></path><rect x="44.56" y="5.24" width="2.62" height="2.62"></rect><rect x="49.81" y="5.24" width="15.73" height="2.62"></rect><rect x="44.56" y="10.49" width="20.97" height="2.62"></rect><path d="M34.33,46.44A13.11,13.11,0,1,1,47.44,33.33,13.12,13.12,0,0,1,34.33,46.44Zm0-23.6A10.49,10.49,0,1,0,44.81,33.33,10.51,10.51,0,0,0,34.33,22.84Z" transform="translate(-10.74 -9.74)"></path><rect x="22.28" y="23.59" width="2.62" height="11.8"></rect><polygon points="35.39 24.9 23.05 24.9 14.34 16.19 16.19 14.34 24.14 22.28 35.39 22.28 35.39 24.9"></polygon><rect x="20.97" y="44.56" width="2.62" height="2.62"></rect><rect x="26.21" y="44.56" width="31.46" height="2.62"></rect><rect x="20.97" y="49.81" width="36.7" height="2.62"></rect><rect x="20.97" y="55.05" width="36.7" height="2.62"></rect><rect x="20.97" y="60.29" width="13.11" height="2.62"></rect><rect x="20.97" y="65.54" width="7.86" height="2.62"></rect><rect x="20.97" y="70.78" width="7.86" height="2.62"></rect></svg>