<svg xmlns="http://www.w3.org/2000/svg" xmlns:xlink="http://www.w3.org/1999/xlink" id="Layer_1" x="0px" y="0px" viewBox="0 0 100 100" style="enable-background:new 0 0 100 100;" xml:space="preserve">
<style type="text/css">
	.st0{fill:#FF826E;}
	.st1{fill:#CF9E76;}
	.st2{fill:#AAB2BD;}
	.st3{fill:#CCD1D9;}
	.st4{fill:#69D6F4;}
	.st5{fill:#FCD770;}
</style>
<g>
	<g>
		<g>
			<polygon class="st0" points="78.65,18.74 76.65,24.74 74.65,21.74 72.65,18.74    "></polygon>
		</g>
		<g>
			<rect x="59.65" y="36.74" class="st0" width="4" height="10"></rect>
		</g>
		<g>
			<rect x="67.65" y="32.74" class="st0" width="4" height="14"></rect>
		</g>
		<g>
			<rect x="75.65" y="28.74" class="st0" width="4" height="18"></rect>
		</g>
		<g>
			<rect x="51.65" y="40.74" class="st0" width="4" height="6"></rect>
		</g>
		<g>
			<path class="st1" d="M37.65,50.74v16c0,1.1-0.45,2.1-1.17,2.83c-0.73,0.72-1.73,1.17-2.83,1.17c-2.21,0-4-1.79-4-4v-16h2h4H37.65     z"></path>
		</g>
		<g>
			<path class="st2" d="M35.65,46.74v4h-4v-4l0.02-0.14c0.65,0.09,1.31,0.14,1.98,0.14c0.67,0,1.33-0.05,1.98-0.14L35.65,46.74z"></path>
		</g>
		<g>
			<path class="st3" d="M47.65,32.74c0,0.74-0.06,1.46-0.17,2.17c-0.94,6.06-5.77,10.83-11.85,11.69c-0.65,0.09-1.31,0.14-1.98,0.14     c-0.67,0-1.33-0.05-1.98-0.14c-6.79-0.96-12.02-6.8-12.02-13.86c0-7.73,6.27-14,14-14S47.65,25.01,47.65,32.74z"></path>
		</g>
		<g>
			<path class="st4" d="M43.65,32.74c0,2.4-0.85,4.61-2.26,6.34l-1.4,1.4c-1.73,1.41-3.94,2.26-6.34,2.26c-5.52,0-10-4.48-10-10     c0-2.4,0.85-4.61,2.26-6.34l1.4-1.4c1.73-1.41,3.94-2.26,6.34-2.26C39.17,22.74,43.65,27.22,43.65,32.74z"></path>
		</g>
		<g>
			<path class="st3" d="M57.65,72.74c0,0.34,0.03,0.67,0.09,0.99l-0.09,0.01h-2c-1.1,0-2-0.9-2-2v-1v-1c0-1.1,0.9-2,2-2h2l0.09,0.01     c-0.06,0.32-0.09,0.65-0.09,0.99V72.74z"></path>
		</g>
		<g>
			<path class="st2" d="M74.56,64.57c-1.78,1.47-2.91,3.69-2.91,6.17c0,2.48,1.13,4.7,2.91,6.17c-1.9,1.17-4.12,1.83-6.45,1.83     h-3.46v-6h1c1.1,0,2-0.9,2-2s-0.9-2-2-2h-1v-6h3.46C70.44,62.74,72.66,63.4,74.56,64.57z"></path>
		</g>
		<g>
			<path class="st2" d="M64.65,72.74v6h-1c-2.97,0-5.44-2.17-5.91-5.01c-0.06-0.32-0.09-0.65-0.09-0.99v-4     c0-0.34,0.03-0.67,0.09-0.99c0.47-2.84,2.94-5.01,5.91-5.01h1v6h-1c-0.55,0-1.05,0.22-1.41,0.59c-0.37,0.36-0.59,0.86-0.59,1.41     c0,1.1,0.9,2,2,2H64.65z"></path>
		</g>
		<g>
			<path class="st5" d="M74.56,64.57c2.29,1.4,4.11,3.54,5.09,6.17c-0.98,2.63-2.8,4.77-5.09,6.17c-1.78-1.47-2.91-3.69-2.91-6.17     C71.65,68.26,72.78,66.04,74.56,64.57z"></path>
		</g>
		<g>
			<path class="st5" d="M65.65,68.74c1.1,0,2,0.9,2,2s-0.9,2-2,2h-1h-1c-1.1,0-2-0.9-2-2c0-0.55,0.22-1.05,0.59-1.41     c0.36-0.37,0.86-0.59,1.41-0.59h1H65.65z"></path>
		</g>
	</g>
	<g>
		<g>
			<path d="M33.65,47.74c-8.27,0-15-6.73-15-15s6.73-15,15-15s15,6.73,15,15S41.92,47.74,33.65,47.74z M33.65,19.74     c-7.17,0-13,5.83-13,13s5.83,13,13,13s13-5.83,13-13S40.82,19.74,33.65,19.74z"></path>
		</g>
		<g>
			<rect x="34.65" y="46.74" width="2" height="4"></rect>
		</g>
		<g>
			<rect x="30.65" y="46.74" width="2" height="4"></rect>
		</g>
		<g>
			<path d="M33.65,71.74c-2.76,0-5-2.24-5-5v-17h10v17C38.65,69.49,36.41,71.74,33.65,71.74z M30.65,51.74v15c0,1.65,1.35,3,3,3     s3-1.35,3-3v-15H30.65z"></path>
		</g>
		<g>
			<path d="M76.95,26.99l-6.17-9.26h9.26L76.95,26.99z M74.52,19.74l1.83,2.74l0.91-2.74H74.52z"></path>
		</g>
		<g>
			<rect x="45.97" y="27.32" transform="matrix(0.8996 -0.4367 0.4367 0.8996 -6.2373 29.5089)" width="30.19" height="2"></rect>
		</g>
		<g>
			<path d="M80.65,47.74h-6v-20h6V47.74z M76.65,45.74h2v-16h-2V45.74z"></path>
		</g>
		<g>
			<path d="M72.65,47.74h-6v-16h6V47.74z M68.65,45.74h2v-12h-2V45.74z"></path>
		</g>
		<g>
			<path d="M64.65,47.74h-6v-12h6V47.74z M60.65,45.74h2v-8h-2V45.74z"></path>
		</g>
		<g>
			<path d="M56.65,47.74h-6v-8h6V47.74z M52.65,45.74h2v-4h-2V45.74z"></path>
		</g>
		<g>
			<path d="M68.11,79.74h-4.46c-3.86,0-7-3.14-7-7v-4c0-3.86,3.14-7,7-7h4.46c5.53,0,10.54,3.48,12.48,8.65l0.13,0.35l-0.13,0.35     C78.65,76.26,73.63,79.74,68.11,79.74z M63.65,63.74c-2.76,0-5,2.24-5,5v4c0,2.76,2.24,5,5,5h4.46c4.57,0,8.73-2.8,10.47-7     c-1.74-4.2-5.9-7-10.47-7H63.65z"></path>
		</g>
		<g>
			<path d="M65.65,73.74h-2c-1.65,0-3-1.35-3-3c0-1.65,1.35-3,3-3h2c1.65,0,3,1.35,3,3C68.65,72.39,67.31,73.74,65.65,73.74z      M63.65,69.74c-0.55,0-1,0.45-1,1c0,0.55,0.45,1,1,1h2c0.55,0,1-0.45,1-1c0-0.55-0.45-1-1-1H63.65z"></path>
		</g>
		<g>
			<path d="M73.92,77.68c-2.08-1.72-3.27-4.25-3.27-6.94s1.19-5.22,3.27-6.94l1.27,1.54c-1.62,1.34-2.54,3.3-2.54,5.4     c0,2.09,0.93,4.06,2.54,5.4L73.92,77.68z"></path>
		</g>
		<g>
			<circle cx="75.65" cy="70.74" r="1"></circle>
		</g>
		<g>
			<rect x="63.65" y="62.74" width="2" height="6"></rect>
		</g>
		<g>
			<rect x="63.65" y="72.74" width="2" height="6"></rect>
		</g>
		<g>
			<path d="M57.65,74.74h-2c-1.65,0-3-1.35-3-3v-2c0-1.65,1.35-3,3-3h2v2h-2c-0.55,0-1,0.45-1,1v2c0,0.55,0.45,1,1,1h2V74.74z"></path>
		</g>
		<g>
			<path d="M41.65,79.74h-6c-1.65,0-3-1.35-3-3v-6h2v6c0,0.55,0.45,1,1,1h6c0.55,0,1-0.45,1-1v-21c0-1.65,1.35-3,3-3h2     c1.65,0,3,1.35,3,3v13c0,0.55,0.45,1,1,1h2v2h-2c-1.65,0-3-1.35-3-3v-13c0-0.55-0.45-1-1-1h-2c-0.55,0-1,0.45-1,1v21     C44.65,78.39,43.31,79.74,41.65,79.74z"></path>
		</g>
		<g>
			<path d="M42.16,39.71l-1.55-1.27c1.31-1.6,2.04-3.63,2.04-5.7c0-4.96-4.04-9-9-9c-2.07,0-4.1,0.72-5.7,2.04l-1.27-1.55     c1.96-1.61,4.43-2.49,6.97-2.49c6.07,0,11,4.93,11,11C44.65,35.27,43.77,37.75,42.16,39.71z"></path>
		</g>
		<g>
			<path d="M33.65,43.74c-6.07,0-11-4.93-11-11c0-2.54,0.88-5.01,2.49-6.97l1.55,1.27c-1.31,1.6-2.04,3.63-2.04,5.7     c0,4.96,4.04,9,9,9c2.07,0,4.1-0.72,5.7-2.04l1.27,1.55C38.66,42.85,36.19,43.74,33.65,43.74z"></path>
		</g>
	</g>
</g>
</svg>