<svg xmlns="http://www.w3.org/2000/svg" id="Layer_1" data-name="Layer 1" viewBox="0 0 77 77"><defs><style>.cls-1{fill:#ff826e;}.cls-2{fill:#b4dd7f;}.cls-3{fill:#e6e9ed;}.cls-4{fill:#fcd770;}.cls-5{fill:#b27946;}.cls-6{fill:#f0d0b4;}.cls-7{fill:#aab2bd;}.cls-8{fill:#969faa;}</style></defs><path class="cls-1" d="M80.19,51.4l3,1.14a4.93,4.93,0,0,1,3.22,4.64v7.74H79V58.71H66.57v6.21H59.12V57.18a4.94,4.94,0,0,1,3.23-4.64l3-1.14L69.06,50l3.72,5,3.73-5Z" transform="translate(-10.69 -14)"></path><path class="cls-2" d="M62.85,78.3V86H55.4V79.82H43V86H35.53V78.3a4.94,4.94,0,0,1,3.23-4.65l6.7-2.52a3.73,3.73,0,1,0,7.45,0l6.71,2.52A4.94,4.94,0,0,1,62.85,78.3Z" transform="translate(-10.69 -14)"></path><path class="cls-1" d="M25.59,55l3.73-5L36,52.54a4.94,4.94,0,0,1,3.22,4.64v7.74H31.8V58.71H19.38v6.21H11.93V57.18a4.94,4.94,0,0,1,3.23-4.64L21.87,50Z" transform="translate(-10.69 -14)"></path><polygon class="cls-3" points="68.3 44.71 68.3 50.92 68.3 54.64 55.88 54.64 55.88 50.92 55.88 44.71 68.3 44.71"></polygon><polygon class="cls-3" points="44.71 65.82 44.71 72.03 44.71 75.75 32.29 75.75 32.29 72.03 32.29 65.82 44.71 65.82"></polygon><polygon class="cls-3" points="21.11 44.71 21.11 50.92 21.11 54.64 8.69 54.64 8.69 50.92 8.69 44.71 21.11 44.71"></polygon><path class="cls-4" d="M59.12,57.18v4a3.72,3.72,0,0,0-3.72-3.73h-.21a8.48,8.48,0,0,1-6-2.48,8.48,8.48,0,0,1-6,2.48H43a3.72,3.72,0,0,0-3.73,3.73v-5a9.94,9.94,0,1,1,19.87,0Z" transform="translate(-10.69 -14)"></path><path class="cls-5" d="M85.2,48.78A4.18,4.18,0,0,1,84.11,50a6,6,0,0,1-3.87,1.24l0,.14L76.51,50V47.53a5.18,5.18,0,0,0,.67-.57,6.26,6.26,0,0,0,1.69-3.16H79a3.72,3.72,0,0,0,3.73-3.73v2.7A8.48,8.48,0,0,0,85.2,48.78Z" transform="translate(-10.69 -14)"></path><path class="cls-5" d="M69.06,47.53V50L65.38,51.4l0-.14c-3.72,0-5-2.48-5-2.48a8.48,8.48,0,0,0,2.48-6v-2.7a3.72,3.72,0,0,0,3.72,3.73h.13A6.22,6.22,0,0,0,69.06,47.53Z" transform="translate(-10.69 -14)"></path><path class="cls-5" d="M82.72,35.12v5A3.72,3.72,0,0,0,79,36.36h-.21a8.49,8.49,0,0,1-6-2.49,8.49,8.49,0,0,1-6,2.49h-.22a3.71,3.71,0,0,0-3.72,3.72v-5a9.94,9.94,0,1,1,19.87,0Z" transform="translate(-10.69 -14)"></path><path class="cls-5" d="M35.53,35.12v5a3.71,3.71,0,0,0-1.09-2.63,3.75,3.75,0,0,0-2.64-1.09H19.38a3.71,3.71,0,0,0-3.72,3.72v-5a9.94,9.94,0,1,1,19.87,0Z" transform="translate(-10.69 -14)"></path><path class="cls-6" d="M49.19,69.89c.77,0,1.5-.14,3.72-1.24v2.48a3.73,3.73,0,0,1-7.45,0V68.65A6.17,6.17,0,0,0,49.19,69.89Z" transform="translate(-10.69 -14)"></path><path class="cls-6" d="M59.12,61.2a3.71,3.71,0,0,1-3.72,3.72h-.13a5.58,5.58,0,0,0,.13-1.23V57.47a3.72,3.72,0,0,1,3.72,3.73Z" transform="translate(-10.69 -14)"></path><path class="cls-6" d="M55.4,57.47v6.21a5.58,5.58,0,0,1-.13,1.23,6.2,6.2,0,0,1-1.68,3.17,7.33,7.33,0,0,1-.68.57c-2.22,1.1-2.95,1.24-3.72,1.24a6.17,6.17,0,0,1-3.73-1.24,6.19,6.19,0,0,1-2.48-5V57.47h.21a8.48,8.48,0,0,0,6-2.48,8.48,8.48,0,0,0,6,2.48Z" transform="translate(-10.69 -14)"></path><path class="cls-6" d="M43,63.68a6.26,6.26,0,0,0,.12,1.23H43a3.73,3.73,0,1,1,0-7.45Z" transform="translate(-10.69 -14)"></path><path class="cls-6" d="M72.78,48.78c.77,0,1.51-.14,3.73-1.25V50l-3.73,5-3.72-5V47.53A6.08,6.08,0,0,0,72.78,48.78Z" transform="translate(-10.69 -14)"></path><path class="cls-6" d="M82.72,40.08A3.72,3.72,0,0,1,79,43.81h-.12A5.58,5.58,0,0,0,79,42.57V36.36a3.72,3.72,0,0,1,3.73,3.72Z" transform="translate(-10.69 -14)"></path><path class="cls-6" d="M79,36.36v6.21a5.58,5.58,0,0,1-.12,1.23A6.26,6.26,0,0,1,77.18,47a5.18,5.18,0,0,1-.67.57c-2.22,1.11-3,1.25-3.73,1.25a6.08,6.08,0,0,1-3.72-1.25A6.22,6.22,0,0,1,66.7,43.8a5.58,5.58,0,0,1-.13-1.23V36.36h.22a8.49,8.49,0,0,0,6-2.49,8.49,8.49,0,0,0,6,2.49Z" transform="translate(-10.69 -14)"></path><path class="cls-6" d="M66.57,42.57a5.58,5.58,0,0,0,.13,1.23h-.13a3.73,3.73,0,0,1,0-7.45Z" transform="translate(-10.69 -14)"></path><path class="cls-6" d="M25.59,48.78c.77,0,1.51-.14,3.73-1.25V50l-3.73,5-3.72-5V47.53A6.08,6.08,0,0,0,25.59,48.78Z" transform="translate(-10.69 -14)"></path><path class="cls-6" d="M35.53,40.08a3.73,3.73,0,0,1-3.73,3.73h-.12a5.58,5.58,0,0,0,.12-1.23V36.36a3.75,3.75,0,0,1,2.64,1.09A3.71,3.71,0,0,1,35.53,40.08Z" transform="translate(-10.69 -14)"></path><path class="cls-6" d="M31.8,36.36v6.21a5.58,5.58,0,0,1-.12,1.23A6.26,6.26,0,0,1,30,47a6,6,0,0,1-.67.57c-2.22,1.11-3,1.25-3.73,1.25a6.08,6.08,0,0,1-3.72-1.25,6.22,6.22,0,0,1-2.36-3.73,5.58,5.58,0,0,1-.13-1.23V36.36Z" transform="translate(-10.69 -14)"></path><path class="cls-6" d="M19.38,42.57a5.58,5.58,0,0,0,.13,1.23h-.13a3.73,3.73,0,0,1,0-7.45Z" transform="translate(-10.69 -14)"></path><path class="cls-7" d="M25.59,20.21v5H18.14a2.49,2.49,0,0,1-2.48-2.48v-5a2.49,2.49,0,0,1,2.48-2.48h7.45Z" transform="translate(-10.69 -14)"></path><rect class="cls-2" x="14.9" y="1.24" width="47.19" height="4.97"></rect><rect class="cls-4" x="14.9" y="6.21" width="47.19" height="4.97"></rect><polygon class="cls-8" points="72.03 6.21 62.09 11.18 62.09 6.21 62.09 1.24 72.03 6.21"></polygon><path d="M73.08,26.42H18.14a3.73,3.73,0,0,1-3.72-3.72v-5A3.73,3.73,0,0,1,18.14,14H73.08L85.5,20.21ZM18.14,16.49a1.24,1.24,0,0,0-1.24,1.24v5a1.25,1.25,0,0,0,1.24,1.24H72.49l7.45-3.73-7.45-3.72Z" transform="translate(-10.69 -14)"></path><rect x="60.85" y="1.24" width="2.48" height="9.93"></rect><rect x="13.66" y="1.24" width="2.48" height="9.93"></rect><rect x="14.9" y="4.97" width="47.19" height="2.48"></rect><path d="M64.09,87.27H55.4V84.79h6.21V78.3a3.73,3.73,0,0,0-2.42-3.49l-6.71-2.52L53.35,70l6.71,2.51a6.26,6.26,0,0,1,4,5.82Z" transform="translate(-10.69 -14)"></path><path d="M43,87.27H34.29v-9a6.26,6.26,0,0,1,4-5.82L45,70l.87,2.32-6.71,2.52a3.73,3.73,0,0,0-2.42,3.49v6.49H43Z" transform="translate(-10.69 -14)"></path><path d="M49.19,76.1a5,5,0,0,1-5-5V68.65h2.49v2.48a2.48,2.48,0,0,0,5,0V68.65h2.49v2.48A5,5,0,0,1,49.19,76.1Z" transform="translate(-10.69 -14)"></path><path d="M49.19,71.13a7.46,7.46,0,0,1-7.45-7.45V57.47h2.48v6.21a5,5,0,0,0,9.94,0V57.47h2.48v6.21A7.46,7.46,0,0,1,49.19,71.13Z" transform="translate(-10.69 -14)"></path><path d="M55.4,66.16V63.68a2.49,2.49,0,0,0,0-5h-.22a9.78,9.78,0,0,1-6-2.07,9.78,9.78,0,0,1-6,2.07H43a2.49,2.49,0,0,0,0,5v2.48a5,5,0,1,1,0-9.93h.21a7.28,7.28,0,0,0,5.12-2.12l.88-.88.88.88a7.25,7.25,0,0,0,5.11,2.12h.22a5,5,0,1,1,0,9.93Z" transform="translate(-10.69 -14)"></path><path d="M60.37,61.2H57.88v-5a8.69,8.69,0,1,0-17.38,0v5H38v-5a11.18,11.18,0,0,1,22.36,0Z" transform="translate(-10.69 -14)"></path><path d="M56.64,91H41.74V78.58h14.9ZM44.22,88.52h9.94V81.07H44.22Z" transform="translate(-10.69 -14)"></path><path d="M87.69,66.16H79V63.68H85.2V57.19a3.73,3.73,0,0,0-2.42-3.49l-6.71-2.52L77,48.86l6.71,2.51a6.25,6.25,0,0,1,4,5.82Z" transform="translate(-10.69 -14)"></path><path d="M66.57,66.16H57.88v-9a6.25,6.25,0,0,1,4-5.82l6.71-2.51.88,2.32L62.78,53.7a3.74,3.74,0,0,0-2.41,3.49v6.49h6.2Z" transform="translate(-10.69 -14)"></path><polygon points="62.09 43.05 57.13 36.43 57.13 33.53 59.61 33.53 59.61 35.6 62.09 38.91 64.58 35.6 64.58 33.53 67.06 33.53 67.06 36.43 62.09 43.05"></polygon><path d="M72.78,50a7.46,7.46,0,0,1-7.45-7.45V36.36h2.49v6.21a5,5,0,0,0,9.93,0V36.36h2.49v6.21A7.46,7.46,0,0,1,72.78,50Z" transform="translate(-10.69 -14)"></path><path d="M79,45.05V42.57a2.49,2.49,0,1,0,0-5h-.21a9.78,9.78,0,0,1-6-2.07,9.76,9.76,0,0,1-6,2.07h-.22a2.49,2.49,0,0,0,0,5v2.48a5,5,0,0,1,0-9.93h.22A7.34,7.34,0,0,0,71.91,33l.87-.88.88.88a7.32,7.32,0,0,0,5.12,2.12H79a5,5,0,1,1,0,9.93Z" transform="translate(-10.69 -14)"></path><path d="M80.24,69.89H65.33V57.47H80.24ZM67.82,67.4h9.93V60H67.82Z" transform="translate(-10.69 -14)"></path><path d="M40.5,66.16H31.8V63.68H38V57.19a3.73,3.73,0,0,0-2.42-3.49l-6.71-2.52.88-2.32,6.71,2.51a6.25,6.25,0,0,1,4,5.82Z" transform="translate(-10.69 -14)"></path><path d="M19.38,66.16H10.69v-9a6.25,6.25,0,0,1,4-5.82l6.71-2.51.87,2.32L15.59,53.7a3.75,3.75,0,0,0-2.42,3.49v6.49h6.21Z" transform="translate(-10.69 -14)"></path><polygon points="14.9 43.05 9.94 36.43 9.94 33.53 12.42 33.53 12.42 35.6 14.9 38.91 17.39 35.6 17.39 33.53 19.87 33.53 19.87 36.43 14.9 43.05"></polygon><path d="M25.59,50a7.46,7.46,0,0,1-7.45-7.45V36.36h2.49v6.21a5,5,0,0,0,9.93,0V36.36H33v6.21A7.46,7.46,0,0,1,25.59,50Z" transform="translate(-10.69 -14)"></path><path d="M31.8,45.05V42.57a2.49,2.49,0,1,0,0-5H19.38a2.49,2.49,0,0,0,0,5v2.48a5,5,0,0,1,0-9.93H31.8a5,5,0,1,1,0,9.93Z" transform="translate(-10.69 -14)"></path><path d="M36.77,40.08H34.29v-5a8.7,8.7,0,1,0-17.39,0v5H14.42v-5a11.18,11.18,0,1,1,22.35,0Z" transform="translate(-10.69 -14)"></path><path d="M33,69.89H18.14V57.47H33ZM20.63,67.4h9.93V60H20.63Z" transform="translate(-10.69 -14)"></path><rect x="36.01" y="69.54" width="4.97" height="2.48"></rect><rect x="12.42" y="48.43" width="4.97" height="2.48"></rect><rect x="59.61" y="48.43" width="4.97" height="2.48"></rect><path d="M80.24,52.5V50a4.65,4.65,0,0,0,3.35-1.19,9.82,9.82,0,0,1-2.11-6V35.12a8.7,8.7,0,1,0-17.39,0v7.66a9.82,9.82,0,0,1-2.11,6A4.67,4.67,0,0,0,65.33,50V52.5a6.62,6.62,0,0,1-6.08-3.17l-.4-.8.64-.63a7.32,7.32,0,0,0,2.12-5.12V35.12a11.18,11.18,0,1,1,22.35,0v7.66a7.28,7.28,0,0,0,2.12,5.12l.63.63-.4.8C86.25,49.46,84.68,52.5,80.24,52.5Z" transform="translate(-10.69 -14)"></path></svg>