<svg xmlns="http://www.w3.org/2000/svg" xmlns:xlink="http://www.w3.org/1999/xlink" id="trekking-mountain-nature-landscape" x="0px" y="0px" viewBox="0 0 64 64" style="enable-background:new 0 0 64 64;" xml:space="preserve">
<path d="M46.299,26.561c-0.166-0.34-0.511-0.558-0.89-0.561c-0.33,0.003-0.727,0.208-0.899,0.545l-7.779,15.218L24.899,17.561  c-0.166-0.34-0.511-0.557-0.89-0.561c-0.346-0.004-0.728,0.208-0.899,0.545l-23,45c-0.158,0.31-0.145,0.68,0.038,0.977  C0.329,63.819,0.651,64,1,64h45h17c0.345,0,0.666-0.178,0.849-0.471c0.183-0.292,0.201-0.658,0.05-0.969L46.299,26.561z   M45.381,29.236L50.56,39.83l-2.466,1.849l-2.387-2.387c-0.391-0.391-1.023-0.391-1.414,0L42,41.586l-1.94-1.94L45.381,29.236z   M23.981,20.236l9.593,19.624l-3.628,2.902l-5.392-3.594c-0.336-0.224-0.773-0.224-1.109,0l-5.392,3.594l-3.965-3.172L23.981,20.236  z M13.159,41.408l4.216,3.373c0.342,0.273,0.817,0.292,1.18,0.051L24,41.202l5.445,3.63C29.614,44.944,29.807,45,30,45  c0.222,0,0.442-0.074,0.625-0.219l3.849-3.079l1.338,2.738L44.398,62H2.634L13.159,41.408z M46.625,62l-8.795-17.99l1.274-2.492  l2.19,2.19c0.391,0.391,1.023,0.391,1.414,0L45,41.414l2.293,2.293C47.486,43.901,47.743,44,48,44c0.21,0,0.421-0.066,0.6-0.2  l2.854-2.141L61.399,62H46.625z"></path>
<path d="M54,20c5.514,0,10-4.486,10-10S59.514,0,54,0S44,4.486,44,10S48.486,20,54,20z M54,2c4.411,0,8,3.589,8,8s-3.589,8-8,8  s-8-3.589-8-8S49.589,2,54,2z"></path>
<path d="M13,3c0,1.654,1.346,3,3,3h11V4H16c-0.552,0-1-0.449-1-1c0-1.654-1.346-3-3-3H0v2h12C12.552,2,13,2.449,13,3z"></path>
<rect x="0" y="19" width="9" height="2"></rect>
<path d="M18,19h3v-2h-3c-0.552,0-1-0.449-1-1v-2c0-1.654-1.346-3-3-3H3v2h11c0.552,0,1,0.449,1,1v2C15,17.654,16.346,19,18,19z"></path>
<path d="M34,20h6v-2h-6c-0.552,0-1-0.449-1-1v-2c0-1.654-1.346-3-3-3h-8v2h8c0.552,0,1,0.449,1,1v2C31,18.654,32.346,20,34,20z"></path>
<path d="M27,10h8c1.654,0,3-1.346,3-3V4c0-0.551,0.448-1,1-1h3V1h-3c-1.654,0-3,1.346-3,3v3c0,0.551-0.448,1-1,1h-8V10z"></path>
<path d="M53,28v-2c0-1.654-1.346-3-3-3H37v2h13c0.552,0,1,0.449,1,1v2c0,1.654,1.346,3,3,3h10v-2H54C53.448,29,53,28.551,53,28z"></path>
<rect x="35" y="54" width="2" height="2"></rect>
<rect x="31" y="54" width="2" height="2"></rect>
<rect x="27" y="54" width="2" height="2"></rect>
<rect x="33" y="50" width="2" height="2"></rect>
<rect x="29" y="50" width="2" height="2"></rect>
<rect x="25" y="50" width="2" height="2"></rect>
<rect x="23" y="54" width="2" height="2"></rect>
<rect x="21" y="50" width="2" height="2"></rect>
<rect x="37" y="58" width="2" height="2"></rect>
<rect x="33" y="58" width="2" height="2"></rect>
<rect x="29" y="58" width="2" height="2"></rect>
<rect x="56" y="58" width="2" height="2"></rect>
<rect x="52" y="58" width="2" height="2"></rect>
<rect x="25" y="58" width="2" height="2"></rect>
<rect x="46" y="54" width="2" height="2"></rect>
<rect x="44" y="50" width="2" height="2"></rect>
<rect x="48" y="58" width="2" height="2"></rect>
<path d="M6.293,27.293L5,28.586l-1.293-1.293l-1.414,1.414l2,2C4.488,30.902,4.744,31,5,31s0.512-0.098,0.707-0.293l2-2  L6.293,27.293z"></path>
<path d="M8,36c0.256,0,0.512-0.098,0.707-0.293l2-2l-1.414-1.414L8,33.586l-1.293-1.293l-1.414,1.414l2,2  C7.488,35.902,7.744,36,8,36z"></path>
<rect x="2" y="6" width="7" height="2"></rect>
<rect x="58" y="38" width="2" height="2"></rect>
<rect x="58" y="34" width="2" height="2"></rect>
<rect x="58" y="42" width="2" height="2"></rect>
</svg>