<svg xmlns="http://www.w3.org/2000/svg" xmlns:xlink="http://www.w3.org/1999/xlink" id="Capa_1" x="0px" y="0px" viewBox="0 0 512 512" style="enable-background:new 0 0 512 512;" xml:space="preserve">
<g id="XMLID_283_">
	<path id="XMLID_284_" d="M491.833,156.396c-1.615-3.813-6.016-5.598-9.831-3.981c-3.814,1.615-5.597,6.017-3.981,9.831   C490.614,191.985,497,223.58,497,256.153c0,19.041-2.224,37.781-6.526,55.915l-35.016-35.016c-2.57-2.57-5.823-4.255-9.406-4.872   l-50.729-8.731c-0.512-0.088-0.977-0.328-1.344-0.696l-7.128-7.128c-0.465-0.465-0.732-1.109-0.732-1.768v-68.522   c0-0.658,0.267-1.303,0.732-1.768l10.461-10.461c3.305-3.306,5.125-7.7,5.125-12.374V64.755   c24.171,18.535,44.782,41.572,60.483,67.8c2.127,3.554,6.733,4.712,10.288,2.582c3.554-2.127,4.71-6.733,2.583-10.287   c-22.337-37.312-54.024-68.555-91.636-90.351C345.38,12.03,301.065,0.153,256,0.153c-68.38,0-132.667,26.629-181.02,74.98   C26.628,123.486,0,187.773,0,256.153c0,41.169,10.009,82.091,28.946,118.342c18.322,35.075,44.993,65.909,77.129,89.167   c1.329,0.961,2.867,1.425,4.391,1.425c2.324-0.001,4.615-1.077,6.082-3.104c2.429-3.355,1.677-8.045-1.678-10.474   c-30.263-21.901-55.377-50.935-72.628-83.959C24.42,333.434,15,294.914,15,256.153c0-60.429,22.093-117.461,62.454-161.877   l15.029,41.661c2.62,7.265,9.57,12.146,17.292,12.146h74.371c0.904,0,1.753,0.352,2.392,0.991l5.181,5.181   c-24.436,15.306-40.723,42.468-40.723,73.368c0,36.981,51.18,130.262,73.185,168.65c2.772,4.837,7.754,7.725,13.327,7.725   s10.555-2.888,13.327-7.725c5.94-10.363,14.008-24.73,22.619-40.906h71.427c0.904,0,1.753,0.352,2.393,0.991l48.249,48.249   c0.639,0.639,0.991,1.488,0.991,2.392v44.991c-37.399,26.918-81.778,42.581-128.549,44.867c-4.137,0.202-7.327,3.72-7.125,7.857   c0.196,4.013,3.511,7.134,7.485,7.134c0.123,0,0.248-0.003,0.372-0.009c65.682-3.21,126.93-31.231,172.46-78.903   C486.841,385.103,512,322.32,512,256.153C512,221.559,505.215,187.996,491.833,156.396z M237.821,388.814   c-0.054,0.094-0.105,0.184-0.313,0.184c-0.208,0-0.259-0.09-0.313-0.184c-16.702-29.139-71.198-126.878-71.198-161.191   c0-39.432,32.08-71.512,71.511-71.512s71.511,32.08,71.511,71.512C309.019,261.936,254.523,359.675,237.821,388.814z    M430.309,422.575c-5.983,6.265-12.265,12.155-18.795,17.686v-33.262c0-4.91-1.912-9.526-5.384-12.999l-48.249-48.249   c-3.472-3.472-8.088-5.384-12.999-5.384h-63.567c21.148-41.032,42.704-88.743,42.704-112.744c0-47.703-38.809-86.512-86.511-86.512   c-11.185,0-21.881,2.134-31.703,6.016l-8.66-8.66c-3.472-3.472-8.088-5.384-12.999-5.384h-74.371c-1.421,0-2.7-0.898-3.182-2.235   L89.089,82.324C134.187,38.974,193.26,15.153,256,15.153c42.427,0,84.142,11.178,120.634,32.325   c3.667,2.125,7.259,4.368,10.803,6.681v106.573c0,0.668-0.26,1.296-0.732,1.768l-10.46,10.46c-3.305,3.306-5.125,7.7-5.125,12.375   v68.522c0,4.675,1.82,9.069,5.125,12.375l7.128,7.128c2.57,2.57,5.823,4.255,9.406,4.872l50.729,8.731   c0.512,0.088,0.977,0.328,1.344,0.696l41.04,41.04C474.941,363.488,456.106,395.565,430.309,422.575z"></path>
	<path id="XMLID_288_" d="M236.276,496.352c-33.076-2.682-64.652-11.968-93.852-27.601c-3.652-1.956-8.196-0.579-10.152,3.072   c-1.955,3.651-0.58,8.197,3.072,10.152c31.027,16.611,64.578,26.479,99.72,29.327c0.207,0.017,0.411,0.024,0.614,0.024   c3.867,0,7.149-2.972,7.467-6.894C243.48,500.305,240.404,496.687,236.276,496.352z"></path>
	<path id="XMLID_289_" d="M237.508,175c-24.329,0-44.122,19.793-44.122,44.122s19.793,44.122,44.122,44.122   c24.329,0,44.122-19.793,44.122-44.122S261.837,175,237.508,175z M237.508,248.245c-16.058,0-29.122-13.064-29.122-29.122   S221.45,190,237.508,190c16.058,0,29.122,13.064,29.122,29.122S253.566,248.245,237.508,248.245z"></path>
	<path id="XMLID_292_" d="M103.446,347.407h17.986c4.142,0,7.5-3.357,7.5-7.5s-3.358-7.5-7.5-7.5h-17.986   c-4.142,0-7.5,3.357-7.5,7.5S99.304,347.407,103.446,347.407z"></path>
	<path id="XMLID_293_" d="M103.446,375.197h61.853c4.142,0,7.5-3.357,7.5-7.5s-3.358-7.5-7.5-7.5h-61.853   c-4.142,0-7.5,3.357-7.5,7.5S99.304,375.197,103.446,375.197z"></path>
	<path id="XMLID_294_" d="M103.446,396.283h61.853c4.142,0,7.5-3.357,7.5-7.5s-3.358-7.5-7.5-7.5h-61.853   c-4.142,0-7.5,3.357-7.5,7.5S99.304,396.283,103.446,396.283z"></path>
</g>
<g>
</g>
<g>
</g>
<g>
</g>
<g>
</g>
<g>
</g>
<g>
</g>
<g>
</g>
<g>
</g>
<g>
</g>
<g>
</g>
<g>
</g>
<g>
</g>
<g>
</g>
<g>
</g>
<g>
</g>
</svg>