<svg xmlns="http://www.w3.org/2000/svg" id="Layer_1" data-name="Layer 1" viewBox="0 0 32.42 32.39"><defs><style>.cls-1{fill:#272525;}</style></defs><path class="cls-1" d="M73.9,91.53h1.56a16.2,16.2,0,0,0,0-32.38H73.9a16.21,16.21,0,0,0,0,32.38Zm-9.79-5.71a17.89,17.89,0,0,1,3.32-1.91A19.31,19.31,0,0,0,72,90,15,15,0,0,1,64.11,85.82Zm10,4.32a18.46,18.46,0,0,1-5.54-6.7,18.93,18.93,0,0,1,5.54-1.1Zm0-9a19.79,19.79,0,0,0-6,1.21,18.74,18.74,0,0,1-1.3-5.8h7.35Zm0-5.85H66.76a18.42,18.42,0,0,1,1-6,19.88,19.88,0,0,0,6.38,1.35Zm3.14,14.84a19.33,19.33,0,0,0,4.77-6.39,18.07,18.07,0,0,1,3.57,1.93A14.91,14.91,0,0,1,77.28,90.08Zm9.17-5.41a20.3,20.3,0,0,0-3.91-2.14,19.93,19.93,0,0,0,1.29-6h5.85A14.8,14.8,0,0,1,86.45,84.67Zm.47-18a14.81,14.81,0,0,1,2.81,8.61H83.87a19.91,19.91,0,0,0-1-6.24A20.05,20.05,0,0,0,86.92,66.62Zm-.78-1a18.15,18.15,0,0,1-3.73,2.19,19.58,19.58,0,0,0-5.13-7.23A14.94,14.94,0,0,1,86.14,65.63Zm-10.74-5a18.46,18.46,0,0,1,5.84,7.62,18.18,18.18,0,0,1-5.84,1.08Zm0,10a20,20,0,0,0,6.27-1.16,18.82,18.82,0,0,1,1,5.78H75.4Zm0,5.87h7.18a18.77,18.77,0,0,1-1.22,5.61,20.05,20.05,0,0,0-6-1Zm0,5.83a19.07,19.07,0,0,1,5.47.93A18.44,18.44,0,0,1,75.4,90ZM74.14,60.53v8.81a18.55,18.55,0,0,1-5.93-1.26A18.51,18.51,0,0,1,74.14,60.53Zm-2.09.1a19.8,19.8,0,0,0-5,6.95,18.3,18.3,0,0,1-3.47-2.16A14.92,14.92,0,0,1,72.05,60.63Zm-9.26,5.76a20.38,20.38,0,0,0,3.82,2.36,19.81,19.81,0,0,0-1.11,6.5H59.81A14.84,14.84,0,0,1,62.79,66.39ZM59.86,76.5h5.68a19.69,19.69,0,0,0,1.39,6.27,19.24,19.24,0,0,0-3.66,2.11A14.73,14.73,0,0,1,59.86,76.5Z" transform="translate(-58.56 -59.14)"></path></svg>